<svg width="18" height="18" viewBox="0 0 18 18" xmlns="http://www.w3.org/2000/svg">
  <path d="M9 0C4 0 0 4 0 9c0 4 2.6 7.3 6.2 8.5.5.1.6-.2.6-.5v-1.7c-2.8.6-3.4-1.3-3.4-1.3-.4-1.1-1-1.4-1-1.4-1-.6.1-.6.1-.6 1 .1 1.5 1 1.5 1 .9 1.5 2.3 1.1 2.9.8.1-.6.4-1 .7-1.2-2.3-.3-4.7-1.2-4.7-5.2 0-1.2.4-2.1 1-2.9-.1-.3-.4-1.4.1-2.9 0 0 .8-.3 2.7 1.1.8-.2 1.6-.3 2.4-.3s1.6.1 2.4.3c1.9-1.4 2.7-1.1 2.7-1.1.5 1.5.2 2.6.1 2.9.6.8 1 1.7 1 2.9 0 4-2.4 4.9-4.7 5.2.4.3.7 1 .7 2v2.7c0 .3.2.6.7.5C15.4 16.3 18 13 18 9c0-5-4-9-9-9z" fill="currentColor"/>
</svg>
